ply
format ascii 1.0
element vertex 362
property float x
property float y
property float z
property uchar red
property uchar green
property uchar blue
element face 720
property list uchar int vertex_indices
end_header
0.0 0.0 0.0 0 0 0
9.876883405951379 3.0 1.5643446504023086 77 0 36
9.510565162951535 3.0 3.090169943749474 79 0 28
8.910065241883679 3.0 4.5399049973954675 80 0 21
8.090169943749475 3.0 5.877852522924732 81 0 10
5.656854249492381 3.0 5.656854249492381 72 0 0
2.3511410091698925 3.0 3.23606797749979 55 16 0
0.9079809994790936 3.0 1.7820130483767356 42 24 12
0.6180339887498949 3.0 1.902113032590307 40 25 9
0.31286893008046185 3.0 1.9753766811902755 38 26 7
1.2246467991473532e-16 3.0 2.0 35 27 7
-0.3128689300804616 3.0 1.9753766811902755 33 28 8
-0.6180339887498947 3.0 1.9021130325903073 30 29 11
-0.9079809994790935 3.0 1.7820130483767358 27 30 15
-2.351141009169892 3.0 3.23606797749979 16 33 0
-2.82842712474619 3.0 2.8284271247461903 6 34 3
-4.854101966249684 3.0 3.5267115137548393 0 37 0
-7.128052193506942 3.0 3.631923997916375 0 41 5
-7.608452130361228 3.0 2.47213595499958 0 41 16
-7.901506724761101 3.0 1.2514757203218478 0 41 22
-8.0 3.0 9.797174393178826e-16 0 41 29
-7.901506724761102 3.0 -1.2514757203218458 0 41 36
-5.706339097770922 3.0 -1.8541019662496838 0 38 41
-5.346039145130208 3.0 -2.7239429984372796 0 38 46
-4.854101966249685 3.0 -3.5267115137548384 0 37 52
-4.242640687119286 3.0 -4.242640687119285 0 36 57
-3.5267115137548393 3.0 -4.854101966249684 0 35 60
-3.6319239979163753 3.0 -7.128052193506942 0 35 74
-2.4721359549995805 3.0 -7.608452130361228 0 33 76
-1.2514757203218483 3.0 -7.901506724761101 0 30 77
-1.8369701987210296e-15 3.0 -10.0 0 25 91
5.944509671528766 3.0 -37.53215694261524 90 0 217
9.270509831248416 3.0 -28.53169548885461 89 0 167
11.803752993228212 3.0 -23.166169628897567 91 0 136
12.931275550434403 3.0 -17.798373876248846 88 0 111
14.142135623730947 3.0 -14.142135623730955 87 0 98
14.562305898749052 3.0 -10.58013454126452 85 0 88
14.256104387013885 3.0 -7.2638479958327515 84 0 77
13.31479122813215 3.0 -4.326237921249268 82 0 64
11.852260087141651 3.0 -1.8772135804827732 80 0 53
12.0 3.0 -2.9391523179536475e-15 83 0 47
13.827636768331928 6.0 2.190082510563232 127 0 48
13.31479122813215 6.0 4.326237921249263 129 0 35
12.47409133863715 6.0 6.3558669963536545 128 0 19
11.326237921249264 6.0 8.228993532094623 127 0 0
5.656854249492381 6.0 5.656854249492381 96 23 0
3.526711513754839 6.0 4.854101966249685 83 35 3
2.723942998437281 6.0 5.346039145130207 79 39 0
1.2360679774997898 6.0 3.804226065180614 69 44 12
0.6257378601609237 6.0 3.950753362380551 65 46 7
2.4492935982947064e-16 6.0 4.0 61 48 3
-0.6257378601609233 6.0 3.950753362380551 57 49 2
-1.2360679774997894 6.0 3.8042260651806146 52 51 5
-1.815961998958187 6.0 3.5640260967534716 46 52 12
-3.5267115137548384 6.0 4.854101966249685 34 55 0
-5.65685424949238 6.0 5.656854249492381 0 59 0
-9.708203932499368 6.0 7.0534230275096785 0 64 0
-14.256104387013885 6.0 7.26384799583275 0 68 10
-15.216904260722456 6.0 4.94427190999916 0 68 29
-15.803013449522203 6.0 2.5029514406436957 0 68 39
-16.0 6.0 1.959434878635765e-15 0 68 49
-13.827636768331928 6.0 -2.1900825105632302 0 67 58
-11.412678195541844 6.0 -3.7082039324993676 0 66 69
-10.692078290260415 6.0 -5.447885996874559 0 65 78
-8.090169943749475 6.0 -5.87785252292473 0 63 86
-7.071067811865477 6.0 -7.071067811865475 0 63 95
-5.877852522924733 6.0 -8.090169943749473 0 61 104
-4.539904997395469 6.0 -8.910065241883679 0 59 110
-3.0901699437494754 6.0 -9.510565162951535 0 56 112
-1.8772135804827723 6.0 -11.852260087141651 0 53 127
-2.5717582782094417e-15 6.0 -14.0 0 46 142
5.944509671528766 6.0 -37.53215694261524 85 0 241
10.506577808748206 6.0 -32.335921554035224 113 0 216
13.619714992186399 6.0 -26.73019572565104 127 0 190
16.45798706418924 6.0 -22.652475842498532 134 0 170
16.970562748477136 6.0 -16.970562748477143 129 0 142
17.798373876248842 6.0 -12.931275550434414 130 0 126
17.820130483767358 6.0 -9.079809994790939 132 0 106
17.119017293312762 6.0 -5.562305898749058 131 0 88
15.803013449522203 6.0 -2.5029514406436975 128 0 74
14.0 6.0 -3.429011037612589e-15 123 0 60
15.803013449522204 9.0 2.502951440643694 170 0 50
15.216904260722456 9.0 4.944271909999158 170 0 33
14.256104387013886 9.0 7.263847995832748 169 0 7
11.326237921249264 9.0 8.228993532094623 156 0 0
7.0710678118654755 9.0 7.0710678118654755 130 44 0
4.702282018339785 9.0 6.47213595499958 117 55 0
3.6319239979163744 9.0 7.128052193506942 111 59 0
2.4721359549995796 9.0 7.608452130361228 105 63 0
0.9386067902413855 9.0 5.926130043570827 95 68 0
3.6739403974420594e-16 9.0 6.0 89 70 0
-0.9386067902413848 9.0 5.926130043570827 83 72 0
-1.854101966249684 9.0 5.706339097770922 77 74 0
-2.7239429984372805 9.0 5.346039145130208 68 77 0
-4.702282018339784 9.0 6.47213595499958 53 81 0
-7.071067811865475 9.0 7.0710678118654755 4 86 0
-11.326237921249263 9.0 8.228993532094625 0 91 0
-19.60214353214409 9.0 9.98779099427003 0 98 15
-20.923243358493377 9.0 6.798373876248845 0 98 44
-21.72914349309303 9.0 3.4415582308850814 0 98 57
-22.0 9.0 2.6942229581241772e-15 0 98 70
-19.753766811902757 9.0 -3.1286893008046146 0 97 83
-17.119017293312766 9.0 -5.5623058987490515 0 96 100
-14.256104387013886 9.0 -7.263847995832746 0 95 109
-11.326237921249264 9.0 -8.228993532094622 0 93 122
-8.485281374238571 9.0 -8.48528137423857 0 90 128
-7.0534230275096785 9.0 -9.708203932499368 0 87 140
-5.447885996874563 9.0 -10.692078290260413 0 85 147
-4.326237921249266 9.0 -13.31479122813215 0 83 163
-2.1900825105632347 9.0 -13.827636768331928 0 77 166
-3.3065463576978533e-15 9.0 -18.0 0 69 196
5.318771811367843 9.0 -33.581403580234685 77 0 255
10.506577808748206 9.0 -32.335921554035224 129 0 250
15.435676991144586 9.0 -30.294221822404513 157 0 237
18.809128073359133 9.0 -25.888543819998322 171 0 216
21.21320343559642 9.0 -21.21320343559643 179 0 194
21.034441853748632 9.0 -15.282416559604307 176 0 163
19.60214353214409 9.0 -9.987790994270034 176 0 131
19.02113032590307 9.0 -6.1803398874989535 175 0 108
17.778390130712477 9.0 -2.81582037072416 173 0 87
16.0 9.0 -3.91886975727153e-15 169 0 67
17.77839013071248 12.0 2.815820370724156 210 0 67
17.119017293312762 12.0 5.562305898749053 210 0 40
17.820130483767358 12.0 9.079809994790935 216 0 0
12.94427190999916 12.0 9.40456403667957 189 33 0
8.485281374238571 12.0 8.485281374238571 166 66 0
7.053423027509678 12.0 9.70820393249937 158 73 0
4.539904997395468 12.0 8.910065241883679 145 82 0
3.0901699437494745 12.0 9.510565162951535 137 86 0
1.5643446504023093 12.0 9.876883405951379 129 90 0
4.898587196589413e-16 12.0 8.0 119 94 0
-1.2514757203218465 12.0 7.901506724761102 111 97 0
-2.4721359549995787 12.0 7.608452130361229 103 100 0
-3.631923997916374 12.0 7.128052193506943 92 103 0
-5.87785252292473 12.0 8.090169943749475 75 107 0
-8.48528137423857 12.0 8.485281374238571 21 114 0
-12.944271909999157 12.0 9.404564036679572 0 121 0
-23.166169628897563 12.0 11.803752993228219 0 129 18
-24.72746942367399 12.0 8.034441853748636 0 130 59
-25.67989685547358 12.0 4.067296091046005 0 130 75
-26.0 12.0 3.184081677783118e-15 0 130 91
-23.704520174283306 12.0 -3.7544271609655375 0 129 108
-19.021130325903073 12.0 -6.1803398874989455 0 127 127
-16.03811743539062 12.0 -8.17182899531184 0 125 140
-12.94427190999916 12.0 -9.404564036679568 0 123 154
-11.313708498984763 12.0 -11.31370849898476 0 121 169
-8.228993532094625 12.0 -11.326237921249263 0 116 178
-6.355866996353657 12.0 -12.474091338637148 0 113 184
-4.944271909999161 12.0 -15.216904260722456 0 111 202
-2.8158203707241585 12.0 -17.778390130712477 0 105 219
-3.673940397442059e-15 12.0 -20.0 0 96 238
4.067296091045997 12.0 -25.679896855473583 64 54 255
9.270509831248416 12.0 -28.53169548885461 132 0 255
14.527695991665492 12.0 -28.512208774027776 172 0 255
18.809128073359133 12.0 -25.888543819998322 194 0 246
22.627416997969515 12.0 -22.627416997969526 215 0 229
24.27050983124842 12.0 -17.6335575687742 224 0 201
23.166169628897563 12.0 -11.80375299322822 221 0 162
20.923243358493377 12.0 -6.798373876248849 216 0 128
19.753766811902754 12.0 -3.1286893008046217 215 0 106
20.0 12.0 -4.898587196589413e-15 219 0 85
19.753766811902757 15.0 3.1286893008046173 254 0 84
19.02113032590307 15.0 6.180339887498948 252 0 56
17.820130483767358 15.0 9.079809994790935 248 0 15
14.562305898749054 15.0 10.580134541264517 230 58 0
11.313708498984761 15.0 11.313708498984761 208 84 0
8.228993532094623 15.0 11.326237921249264 194 96 0
6.355866996353655 15.0 12.474091338637148 183 103 0
3.7082039324993694 15.0 11.412678195541842 170 110 0
1.877213580482771 15.0 11.852260087141653 161 115 0
7.347880794884119e-16 15.0 12.0 151 119 0
-1.8772135804827697 15.0 11.852260087141653 142 123 0
-3.708203932499368 15.0 11.412678195541844 131 127 0
-5.447885996874561 15.0 10.692078290260415 117 131 0
-7.053423027509677 15.0 9.70820393249937 98 135 0
-9.899494936611664 15.0 9.899494936611665 45 142 0
-14.562305898749052 15.0 10.580134541264519 0 151 0
-24.948182677274296 15.0 12.711733992707313 0 161 20
-26.6295824562643 15.0 8.65247584249853 0 162 76
-27.655273536663856 15.0 4.3801650211264676 0 162 95
-28.0 15.0 3.429011037612589e-15 0 162 112
-23.704520174283306 15.0 -3.7544271609655375 0 160 132
-20.92324335849338 15.0 -6.79837387624884 0 159 153
-16.03811743539062 15.0 -8.17182899531184 0 155 166
-12.94427190999916 15.0 -9.404564036679568 0 151 180
-11.313708498984763 15.0 -11.31370849898476 0 150 197
-9.404564036679572 15.0 -12.944271909999157 0 146 216
-7.263847995832751 15.0 -14.256104387013885 0 142 226
-5.562305898749056 15.0 -17.119017293312762 0 140 243
-2.8158203707241585 15.0 -17.778390130712477 0 132 250
-3.3065463576978533e-15 15.0 -18.0 0 125 252
3.1286893008046137 15.0 -19.753766811902757 71 105 255
6.798373876248839 15.0 -20.92324335849338 134 85 255
11.803752993228212 15.0 -23.166169628897567 178 43 255
16.45798706418924 15.0 -22.652475842498532 207 0 255
21.21320343559642 15.0 -21.21320343559643 237 0 248
24.27050983124842 15.0 -17.6335575687742 255 0 225
23.166169628897563 15.0 -11.80375299322822 253 0 186
22.825356391083684 15.0 -7.416407864998744 255 0 151
21.72914349309303 15.0 -3.441558230885084 255 0 128
20.0 15.0 -4.898587196589413e-15 251 0 104
17.77839013071248 18.0 2.815820370724156 255 64 107
17.119017293312762 18.0 5.562305898749053 255 67 84
16.03811743539062 18.0 8.171828995311841 255 75 51
14.562305898749054 18.0 10.580134541264517 255 88 0
12.727922061357857 18.0 12.727922061357857 248 105 0
10.580134541264517 18.0 14.562305898749054 234 117 0
7.263847995832749 18.0 14.256104387013885 219 127 0
4.326237921249264 18.0 13.31479122813215 205 135 0
2.190082510563233 18.0 13.827636768331928 193 140 0
8.572527594031472e-16 18.0 14.0 181 146 0
-2.1900825105632316 18.0 13.827636768331928 170 150 0
-4.3262379212492625 18.0 13.314791228132151 159 154 0
-6.3558669963536545 18.0 12.47409133863715 143 158 0
-8.228993532094622 18.0 11.326237921249264 122 163 0
-11.31370849898476 18.0 11.313708498984761 67 171 0
-16.180339887498945 18.0 11.755705045849465 0 181 0
-24.948182677274296 18.0 12.711733992707313 0 192 27
-26.6295824562643 18.0 8.65247584249853 0 193 95
-27.655273536663856 18.0 4.3801650211264676 0 193 114
-26.0 18.0 3.184081677783118e-15 0 191 133
-21.72914349309303 18.0 -3.441558230885076 0 188 154
-19.021130325903073 18.0 -6.1803398874989455 0 186 174
-16.03811743539062 18.0 -8.17182899531184 0 183 189
-14.562305898749054 18.0 -10.580134541264515 0 182 211
-11.313708498984763 18.0 -11.31370849898476 0 178 223
-9.404564036679572 18.0 -12.944271909999157 0 174 243
-7.263847995832751 18.0 -14.256104387013885 0 170 255
-4.944271909999161 18.0 -15.216904260722456 0 166 255
-2.1900825105632347 18.0 -13.827636768331928 0 157 249
-2.5717582782094417e-15 18.0 -14.0 23 152 251
2.1900825105632293 18.0 -13.827636768331928 113 141 249
4.944271909999156 18.0 -15.216904260722458 149 129 255
8.17182899531184 18.0 -16.038117435390625 182 115 254
11.755705045849458 18.0 -16.180339887498953 207 99 254
16.970562748477136 18.0 -16.970562748477143 247 52 254
21.034441853748632 18.0 -15.282416559604307 255 0 240
21.384156580520827 18.0 -10.895771993749127 255 0 206
20.923243358493377 18.0 -6.798373876248849 255 4 171
19.753766811902754 18.0 -3.1286893008046217 255 40 149
18.0 18.0 -4.408728476930472e-15 255 64 126
15.803013449522204 21.0 2.502951440643694 255 110 133
13.31479122813215 21.0 4.326237921249263 255 123 122
14.256104387013886 21.0 7.263847995832748 255 116 86
12.94427190999916 21.0 9.40456403667957 255 123 49
14.142135623730951 21.0 14.142135623730951 255 127 0
11.755705045849464 21.0 16.18033988749895 255 141 0
8.171828995311843 21.0 16.03811743539062 254 152 0
5.562305898749054 21.0 17.119017293312762 240 159 0
2.502951440643695 21.0 15.803013449522204 226 166 0
9.797174393178826e-16 21.0 16.0 211 172 0
-2.502951440643693 21.0 15.803013449522204 199 177 0
-4.944271909999157 21.0 15.216904260722458 187 181 0
-7.263847995832748 21.0 14.256104387013886 170 186 0
-9.404564036679568 21.0 12.94427190999916 146 191 0
-12.727922061357855 21.0 12.727922061357857 88 201 0
-17.798373876248842 21.0 12.931275550434412 0 212 0
-23.166169628897563 21.0 11.803752993228219 0 220 47
-24.72746942367399 21.0 8.034441853748636 0 221 116
-25.67989685547358 21.0 4.067296091046005 0 221 136
-24.0 21.0 2.9391523179536475e-15 0 220 155
-21.72914349309303 21.0 -3.441558230885076 0 218 176
-19.021130325903073 21.0 -6.1803398874989455 0 215 197
-16.03811743539062 21.0 -8.17182899531184 0 212 213
-12.94427190999916 21.0 -9.404564036679568 0 208 230
-11.313708498984763 21.0 -11.31370849898476 0 206 250
-8.228993532094625 21.0 -11.326237921249263 0 199 255
-5.447885996874563 21.0 -10.692078290260413 0 193 255
-3.7082039324993707 21.0 -11.412678195541842 0 189 255
-1.5643446504023104 21.0 -9.876883405951377 93 182 247
-1.8369701987210296e-15 21.0 -10.0 119 178 249
1.5643446504023069 21.0 -9.876883405951379 151 171 249
3.7082039324993668 21.0 -11.412678195541844 173 162 255
5.447885996874559 21.0 -10.692078290260415 194 157 251
8.22899353209462 21.0 -11.326237921249266 214 147 253
12.727922061357852 21.0 -12.727922061357859 252 124 255
17.798373876248842 21.0 -12.931275550434414 255 87 255
17.820130483767358 21.0 -9.079809994790939 255 91 224
17.119017293312762 21.0 -5.562305898749058 255 100 191
15.803013449522203 21.0 -2.5029514406436975 255 111 172
16.0 21.0 -3.91886975727153e-15 255 110 151
9.876883405951379 24.0 1.5643446504023086 255 168 172
9.510565162951535 24.0 3.090169943749474 255 168 161
8.910065241883679 24.0 4.5399049973954675 255 169 146
8.090169943749475 24.0 5.877852522924732 255 173 131
8.485281374238571 24.0 8.485281374238571 255 170 94
8.228993532094623 24.0 11.326237921249264 255 173 43
9.079809994790937 24.0 17.820130483767358 255 176 0
6.180339887498949 24.0 19.02113032590307 255 184 0
3.1286893008046186 24.0 19.753766811902757 255 192 0
1.102182119232618e-15 24.0 18.0 241 199 0
-2.8158203707241545 24.0 17.77839013071248 228 204 0
-5.562305898749052 24.0 17.119017293312766 215 208 0
-8.171828995311841 24.0 16.03811743539062 197 214 0
-11.75570504584946 24.0 16.18033988749895 170 220 0
-14.14213562373095 24.0 14.142135623730951 108 230 0
-19.416407864998735 24.0 14.106846055019357 0 243 0
-21.384156580520827 24.0 10.895771993749126 0 247 73
-20.923243358493377 24.0 6.798373876248845 0 247 141
-19.753766811902754 24.0 3.1286893008046195 0 245 161
-20.0 24.0 2.4492935982947065e-15 0 245 180
-17.77839013071248 24.0 -2.815820370724153 0 242 199
-15.216904260722458 24.0 -4.9442719099991566 0 238 215
-14.256104387013886 24.0 -7.263847995832746 0 238 234
-11.326237921249264 24.0 -8.228993532094622 0 233 247
-8.485281374238571 24.0 -8.48528137423857 0 229 255
-4.702282018339786 24.0 -6.472135954999579 79 218 249
-3.6319239979163753 24.0 -7.128052193506942 96 216 255
-2.4721359549995805 24.0 -7.608452130361228 117 212 255
-0.9386067902413862 24.0 -5.926130043570826 161 207 245
-1.102182119232618e-15 24.0 -6.0 172 204 246
0.938606790241384 24.0 -5.926130043570827 187 200 246
2.472135954999578 24.0 -7.608452130361229 199 194 255
3.631923997916373 24.0 -7.128052193506944 212 191 255
5.877852522924729 24.0 -8.090169943749476 229 184 255
8.485281374238568 24.0 -8.485281374238571 255 172 255
11.326237921249263 24.0 -8.228993532094627 255 159 252
12.474091338637148 24.0 -6.355866996353658 255 154 233
11.412678195541842 24.0 -3.708203932499372 255 160 210
11.852260087141651 24.0 -1.8772135804827732 255 158 196
10.0 24.0 -2.4492935982947065e-15 255 168 184
5.926130043570827 27.0 0.9386067902413853 255 210 210
5.706339097770921 27.0 1.8541019662496843 255 210 202
5.346039145130208 27.0 2.7239429984372805 255 211 193
4.854101966249685 27.0 3.526711513754839 255 212 184
4.242640687119286 27.0 4.242640687119286 255 214 175
3.526711513754839 27.0 4.854101966249685 255 216 166
3.6319239979163744 27.0 7.128052193506942 255 216 135
2.4721359549995796 27.0 7.608452130361228 255 220 125
1.877213580482771 27.0 11.852260087141653 255 222 51
1.2246467991473533e-15 27.0 20.0 255 227 0
-2.8158203707241545 27.0 17.77839013071248 255 232 0
-5.562305898749052 27.0 17.119017293312766 244 237 0
-8.171828995311841 27.0 16.03811743539062 224 243 0
-10.580134541264515 27.0 14.562305898749054 198 249 0
-12.727922061357855 27.0 12.727922061357857 140 255 0
-14.562305898749052 27.0 10.580134541264519 15 255 40
-14.256104387013885 27.0 7.26384799583275 0 255 132
-11.412678195541842 27.0 3.7082039324993703 0 255 183
-11.852260087141651 27.0 1.8772135804827719 0 255 196
-12.0 27.0 1.4695761589768238e-15 0 255 210
-9.876883405951379 27.0 -1.5643446504023073 14 255 222
-9.510565162951536 27.0 -3.0901699437494727 0 255 235
-8.910065241883679 27.0 -4.539904997395467 0 255 249
-4.854101966249685 27.0 -3.5267115137548384 135 247 249
-2.8284271247461907 27.0 -2.82842712474619 175 240 247
-2.351141009169893 27.0 -3.2360679774997894 179 239 252
-1.8159619989581877 27.0 -3.564026096753471 185 237 255
-1.2360679774997902 27.0 -3.804226065180614 192 235 255
-0.31286893008046207 27.0 -1.9753766811902753 220 230 240
-3.6739403974420594e-16 27.0 -2.0 222 230 239
0.31286893008046135 27.0 -1.9753766811902755 226 229 239
1.236067977499789 27.0 -3.8042260651806146 227 226 255
1.8159619989581866 27.0 -3.564026096753472 233 225 254
2.3511410091698917 27.0 -3.2360679774997902 237 223 253
4.242640687119284 27.0 -4.242640687119286 255 216 255
4.854101966249684 27.0 -3.52671151375484 255 214 249
5.346039145130207 27.0 -2.723942998437282 255 213 241
5.706339097770921 27.0 -1.854101966249686 255 211 231
5.926130043570826 27.0 -0.9386067902413866 255 211 224
6.0 27.0 -1.4695761589768238e-15 255 210 217
0.0 30.0 0.0 254 255 255
3 0 1 2
3 0 2 3
3 0 3 4
3 0 4 5
3 0 5 6
3 0 6 7
3 0 7 8
3 0 8 9
3 0 9 10
3 0 10 11
3 0 11 12
3 0 12 13
3 0 13 14
3 0 14 15
3 0 15 16
3 0 16 17
3 0 17 18
3 0 18 19
3 0 19 20
3 0 20 21
3 0 21 22
3 0 22 23
3 0 23 24
3 0 24 25
3 0 25 26
3 0 26 27
3 0 27 28
3 0 28 29
3 0 29 30
3 0 30 31
3 0 31 32
3 0 32 33
3 0 33 34
3 0 34 35
3 0 35 36
3 0 36 37
3 0 37 38
3 0 38 39
3 0 39 40
3 0 40 1
3 1 41 42
3 1 42 2
3 2 42 43
3 2 43 3
3 3 43 44
3 3 44 4
3 4 44 45
3 4 45 5
3 5 45 46
3 5 46 6
3 6 46 47
3 6 47 7
3 7 47 48
3 7 48 8
3 8 48 49
3 8 49 9
3 9 49 50
3 9 50 10
3 10 50 51
3 10 51 11
3 11 51 52
3 11 52 12
3 12 52 53
3 12 53 13
3 13 53 54
3 13 54 14
3 14 54 55
3 14 55 15
3 15 55 56
3 15 56 16
3 16 56 57
3 16 57 17
3 17 57 58
3 17 58 18
3 18 58 59
3 18 59 19
3 19 59 60
3 19 60 20
3 20 60 61
3 20 61 21
3 21 61 62
3 21 62 22
3 22 62 63
3 22 63 23
3 23 63 64
3 23 64 24
3 24 64 65
3 24 65 25
3 25 65 66
3 25 66 26
3 26 66 67
3 26 67 27
3 27 67 68
3 27 68 28
3 28 68 69
3 28 69 29
3 29 69 70
3 29 70 30
3 30 70 71
3 30 71 31
3 31 71 72
3 31 72 32
3 32 72 73
3 32 73 33
3 33 73 74
3 33 74 34
3 34 74 75
3 34 75 35
3 35 75 76
3 35 76 36
3 36 76 77
3 36 77 37
3 37 77 78
3 37 78 38
3 38 78 79
3 38 79 39
3 39 79 80
3 39 80 40
3 40 80 41
3 40 41 1
3 41 81 82
3 41 82 42
3 42 82 83
3 42 83 43
3 43 83 84
3 43 84 44
3 44 84 85
3 44 85 45
3 45 85 86
3 45 86 46
3 46 86 87
3 46 87 47
3 47 87 88
3 47 88 48
3 48 88 89
3 48 89 49
3 49 89 90
3 49 90 50
3 50 90 91
3 50 91 51
3 51 91 92
3 51 92 52
3 52 92 93
3 52 93 53
3 53 93 94
3 53 94 54
3 54 94 95
3 54 95 55
3 55 95 96
3 55 96 56
3 56 96 97
3 56 97 57
3 57 97 98
3 57 98 58
3 58 98 99
3 58 99 59
3 59 99 100
3 59 100 60
3 60 100 101
3 60 101 61
3 61 101 102
3 61 102 62
3 62 102 103
3 62 103 63
3 63 103 104
3 63 104 64
3 64 104 105
3 64 105 65
3 65 105 106
3 65 106 66
3 66 106 107
3 66 107 67
3 67 107 108
3 67 108 68
3 68 108 109
3 68 109 69
3 69 109 110
3 69 110 70
3 70 110 111
3 70 111 71
3 71 111 112
3 71 112 72
3 72 112 113
3 72 113 73
3 73 113 114
3 73 114 74
3 74 114 115
3 74 115 75
3 75 115 116
3 75 116 76
3 76 116 117
3 76 117 77
3 77 117 118
3 77 118 78
3 78 118 119
3 78 119 79
3 79 119 120
3 79 120 80
3 80 120 81
3 80 81 41
3 81 121 122
3 81 122 82
3 82 122 123
3 82 123 83
3 83 123 124
3 83 124 84
3 84 124 125
3 84 125 85
3 85 125 126
3 85 126 86
3 86 126 127
3 86 127 87
3 87 127 128
3 87 128 88
3 88 128 129
3 88 129 89
3 89 129 130
3 89 130 90
3 90 130 131
3 90 131 91
3 91 131 132
3 91 132 92
3 92 132 133
3 92 133 93
3 93 133 134
3 93 134 94
3 94 134 135
3 94 135 95
3 95 135 136
3 95 136 96
3 96 136 137
3 96 137 97
3 97 137 138
3 97 138 98
3 98 138 139
3 98 139 99
3 99 139 140
3 99 140 100
3 100 140 141
3 100 141 101
3 101 141 142
3 101 142 102
3 102 142 143
3 102 143 103
3 103 143 144
3 103 144 104
3 104 144 145
3 104 145 105
3 105 145 146
3 105 146 106
3 106 146 147
3 106 147 107
3 107 147 148
3 107 148 108
3 108 148 149
3 108 149 109
3 109 149 150
3 109 150 110
3 110 150 151
3 110 151 111
3 111 151 152
3 111 152 112
3 112 152 153
3 112 153 113
3 113 153 154
3 113 154 114
3 114 154 155
3 114 155 115
3 115 155 156
3 115 156 116
3 116 156 157
3 116 157 117
3 117 157 158
3 117 158 118
3 118 158 159
3 118 159 119
3 119 159 160
3 119 160 120
3 120 160 121
3 120 121 81
3 121 161 162
3 121 162 122
3 122 162 163
3 122 163 123
3 123 163 164
3 123 164 124
3 124 164 165
3 124 165 125
3 125 165 166
3 125 166 126
3 126 166 167
3 126 167 127
3 127 167 168
3 127 168 128
3 128 168 169
3 128 169 129
3 129 169 170
3 129 170 130
3 130 170 171
3 130 171 131
3 131 171 172
3 131 172 132
3 132 172 173
3 132 173 133
3 133 173 174
3 133 174 134
3 134 174 175
3 134 175 135
3 135 175 176
3 135 176 136
3 136 176 177
3 136 177 137
3 137 177 178
3 137 178 138
3 138 178 179
3 138 179 139
3 139 179 180
3 139 180 140
3 140 180 181
3 140 181 141
3 141 181 182
3 141 182 142
3 142 182 183
3 142 183 143
3 143 183 184
3 143 184 144
3 144 184 185
3 144 185 145
3 145 185 186
3 145 186 146
3 146 186 187
3 146 187 147
3 147 187 188
3 147 188 148
3 148 188 189
3 148 189 149
3 149 189 190
3 149 190 150
3 150 190 191
3 150 191 151
3 151 191 192
3 151 192 152
3 152 192 193
3 152 193 153
3 153 193 194
3 153 194 154
3 154 194 195
3 154 195 155
3 155 195 196
3 155 196 156
3 156 196 197
3 156 197 157
3 157 197 198
3 157 198 158
3 158 198 199
3 158 199 159
3 159 199 200
3 159 200 160
3 160 200 161
3 160 161 121
3 161 201 202
3 161 202 162
3 162 202 203
3 162 203 163
3 163 203 204
3 163 204 164
3 164 204 205
3 164 205 165
3 165 205 206
3 165 206 166
3 166 206 207
3 166 207 167
3 167 207 208
3 167 208 168
3 168 208 209
3 168 209 169
3 169 209 210
3 169 210 170
3 170 210 211
3 170 211 171
3 171 211 212
3 171 212 172
3 172 212 213
3 172 213 173
3 173 213 214
3 173 214 174
3 174 214 215
3 174 215 175
3 175 215 216
3 175 216 176
3 176 216 217
3 176 217 177
3 177 217 218
3 177 218 178
3 178 218 219
3 178 219 179
3 179 219 220
3 179 220 180
3 180 220 221
3 180 221 181
3 181 221 222
3 181 222 182
3 182 222 223
3 182 223 183
3 183 223 224
3 183 224 184
3 184 224 225
3 184 225 185
3 185 225 226
3 185 226 186
3 186 226 227
3 186 227 187
3 187 227 228
3 187 228 188
3 188 228 229
3 188 229 189
3 189 229 230
3 189 230 190
3 190 230 231
3 190 231 191
3 191 231 232
3 191 232 192
3 192 232 233
3 192 233 193
3 193 233 234
3 193 234 194
3 194 234 235
3 194 235 195
3 195 235 236
3 195 236 196
3 196 236 237
3 196 237 197
3 197 237 238
3 197 238 198
3 198 238 239
3 198 239 199
3 199 239 240
3 199 240 200
3 200 240 201
3 200 201 161
3 201 241 242
3 201 242 202
3 202 242 243
3 202 243 203
3 203 243 244
3 203 244 204
3 204 244 245
3 204 245 205
3 205 245 246
3 205 246 206
3 206 246 247
3 206 247 207
3 207 247 248
3 207 248 208
3 208 248 249
3 208 249 209
3 209 249 250
3 209 250 210
3 210 250 251
3 210 251 211
3 211 251 252
3 211 252 212
3 212 252 253
3 212 253 213
3 213 253 254
3 213 254 214
3 214 254 255
3 214 255 215
3 215 255 256
3 215 256 216
3 216 256 257
3 216 257 217
3 217 257 258
3 217 258 218
3 218 258 259
3 218 259 219
3 219 259 260
3 219 260 220
3 220 260 261
3 220 261 221
3 221 261 262
3 221 262 222
3 222 262 263
3 222 263 223
3 223 263 264
3 223 264 224
3 224 264 265
3 224 265 225
3 225 265 266
3 225 266 226
3 226 266 267
3 226 267 227
3 227 267 268
3 227 268 228
3 228 268 269
3 228 269 229
3 229 269 270
3 229 270 230
3 230 270 271
3 230 271 231
3 231 271 272
3 231 272 232
3 232 272 273
3 232 273 233
3 233 273 274
3 233 274 234
3 234 274 275
3 234 275 235
3 235 275 276
3 235 276 236
3 236 276 277
3 236 277 237
3 237 277 278
3 237 278 238
3 238 278 279
3 238 279 239
3 239 279 280
3 239 280 240
3 240 280 241
3 240 241 201
3 241 281 282
3 241 282 242
3 242 282 283
3 242 283 243
3 243 283 284
3 243 284 244
3 244 284 285
3 244 285 245
3 245 285 286
3 245 286 246
3 246 286 287
3 246 287 247
3 247 287 288
3 247 288 248
3 248 288 289
3 248 289 249
3 249 289 290
3 249 290 250
3 250 290 291
3 250 291 251
3 251 291 292
3 251 292 252
3 252 292 293
3 252 293 253
3 253 293 294
3 253 294 254
3 254 294 295
3 254 295 255
3 255 295 296
3 255 296 256
3 256 296 297
3 256 297 257
3 257 297 298
3 257 298 258
3 258 298 299
3 258 299 259
3 259 299 300
3 259 300 260
3 260 300 301
3 260 301 261
3 261 301 302
3 261 302 262
3 262 302 303
3 262 303 263
3 263 303 304
3 263 304 264
3 264 304 305
3 264 305 265
3 265 305 306
3 265 306 266
3 266 306 307
3 266 307 267
3 267 307 308
3 267 308 268
3 268 308 309
3 268 309 269
3 269 309 310
3 269 310 270
3 270 310 311
3 270 311 271
3 271 311 312
3 271 312 272
3 272 312 313
3 272 313 273
3 273 313 314
3 273 314 274
3 274 314 315
3 274 315 275
3 275 315 316
3 275 316 276
3 276 316 317
3 276 317 277
3 277 317 318
3 277 318 278
3 278 318 319
3 278 319 279
3 279 319 320
3 279 320 280
3 280 320 281
3 280 281 241
3 281 321 322
3 281 322 282
3 282 322 323
3 282 323 283
3 283 323 324
3 283 324 284
3 284 324 325
3 284 325 285
3 285 325 326
3 285 326 286
3 286 326 327
3 286 327 287
3 287 327 328
3 287 328 288
3 288 328 329
3 288 329 289
3 289 329 330
3 289 330 290
3 290 330 331
3 290 331 291
3 291 331 332
3 291 332 292
3 292 332 333
3 292 333 293
3 293 333 334
3 293 334 294
3 294 334 335
3 294 335 295
3 295 335 336
3 295 336 296
3 296 336 337
3 296 337 297
3 297 337 338
3 297 338 298
3 298 338 339
3 298 339 299
3 299 339 340
3 299 340 300
3 300 340 341
3 300 341 301
3 301 341 342
3 301 342 302
3 302 342 343
3 302 343 303
3 303 343 344
3 303 344 304
3 304 344 345
3 304 345 305
3 305 345 346
3 305 346 306
3 306 346 347
3 306 347 307
3 307 347 348
3 307 348 308
3 308 348 349
3 308 349 309
3 309 349 350
3 309 350 310
3 310 350 351
3 310 351 311
3 311 351 352
3 311 352 312
3 312 352 353
3 312 353 313
3 313 353 354
3 313 354 314
3 314 354 355
3 314 355 315
3 315 355 356
3 315 356 316
3 316 356 357
3 316 357 317
3 317 357 358
3 317 358 318
3 318 358 359
3 318 359 319
3 319 359 360
3 319 360 320
3 320 360 321
3 320 321 281
3 361 322 321
3 361 323 322
3 361 324 323
3 361 325 324
3 361 326 325
3 361 327 326
3 361 328 327
3 361 329 328
3 361 330 329
3 361 331 330
3 361 332 331
3 361 333 332
3 361 334 333
3 361 335 334
3 361 336 335
3 361 337 336
3 361 338 337
3 361 339 338
3 361 340 339
3 361 341 340
3 361 342 341
3 361 343 342
3 361 344 343
3 361 345 344
3 361 346 345
3 361 347 346
3 361 348 347
3 361 349 348
3 361 350 349
3 361 351 350
3 361 352 351
3 361 353 352
3 361 354 353
3 361 355 354
3 361 356 355
3 361 357 356
3 361 358 357
3 361 359 358
3 361 360 359
3 361 321 360
